<svg xmlns="http://www.w3.org/2000/svg" width="240" height="307" viewBox="0 0 240 307"><rect width="100%" height="100%" fill="#DDDDDD"/><path fill="#999999" d="M56.955 161.385h5.94q.64 0 1.02.36.37.36.37.95v2.37h-15.87v-1.31q0-.4.17-.84.17-.44.53-.79l7.03-7.04q.88-.9 1.57-1.72.7-.81 1.16-1.61.47-.8.72-1.63.24-.82.24-1.73 0-.83-.24-1.47-.24-.63-.68-1.06-.44-.43-1.05-.65-.62-.21-1.39-.21-.7 0-1.3.2-.6.2-1.06.56-.47.36-.79.84-.32.48-.48 1.05-.27.74-.7.98-.43.24-1.25.11l-2.08-.37q.24-1.66.93-2.92.69-1.25 1.72-2.09 1.03-.84 2.37-1.27 1.33-.42 2.87-.42 1.6 0 2.93.47 1.32.47 2.27 1.34.94.86 1.47 2.08.53 1.21.53 2.7 0 1.28-.38 2.37-.37 1.09-1.01 2.08-.63.99-1.48 1.92-.84.93-1.77 1.89l-5.22 5.32q.75-.22 1.5-.34.74-.12 1.41-.12Zm13.16-5.04h7.04v-7.57q0-1.07.14-2.37l-7.18 9.94Zm10.48 0h2.91v2.29q0 .32-.21.55-.21.23-.59.23h-2.11v5.65h-3.44v-5.65h-9.76q-.4 0-.71-.25-.3-.24-.38-.61l-.42-2 10.96-14.64h3.75v14.43Zm21.48-2.85q0 3.03-.64 5.26-.65 2.23-1.8 3.69-1.14 1.45-2.7 2.16-1.56.72-3.37.72t-3.35-.72q-1.54-.71-2.68-2.16-1.14-1.46-1.78-3.69-.64-2.23-.64-5.26 0-3.04.64-5.26.64-2.23 1.78-3.68 1.14-1.46 2.68-2.17 1.54-.71 3.35-.71t3.37.71q1.56.71 2.7 2.17 1.15 1.45 1.8 3.68.64 2.22.64 5.26Zm-4.08 0q0-2.51-.36-4.16-.37-1.65-.99-2.62-.61-.98-1.41-1.37-.8-.39-1.67-.39-.85 0-1.64.39-.79.39-1.4 1.37-.61.97-.97 2.62-.36 1.65-.36 4.16 0 2.51.36 4.16.36 1.65.97 2.63.61.97 1.4 1.36.79.4 1.64.4.87 0 1.67-.4.8-.39 1.41-1.36.62-.98.99-2.63.36-1.65.36-4.16Zm29.49 6.27-2.09 2.07-5.43-5.43-5.47 5.46-2.1-2.06 5.48-5.49-5.22-5.22 2.08-2.08 5.22 5.22 5.18-5.19 2.11 2.08-5.2 5.2 5.44 5.44Zm13.31-11.02-2.08-.37q.24-1.66.93-2.92.69-1.25 1.72-2.09 1.03-.84 2.37-1.27 1.34-.42 2.87-.42 1.6 0 2.89.45 1.29.46 2.2 1.27.91.81 1.4 1.89.49 1.09.49 2.36 0 1.1-.25 1.94-.25.84-.71 1.46-.47.63-1.15 1.06-.69.43-1.56.72 2.08.66 3.11 2 1.02 1.34 1.02 3.38 0 1.72-.64 3.05-.64 1.33-1.73 2.23-1.08.91-2.52 1.37-1.43.47-3.03.47-1.74 0-3.04-.4-1.29-.4-2.25-1.19-.96-.78-1.64-1.92-.67-1.13-1.15-2.62l1.75-.72q.68-.29 1.28-.15.6.13.88.64.28.56.63 1.11.34.54.82.97.48.42 1.13.68.65.27 1.54.27 1.01 0 1.76-.33.76-.33 1.26-.86.5-.52.75-1.17.25-.65.25-1.31 0-.83-.18-1.51-.17-.68-.73-1.16-.56-.48-1.61-.75t-2.81-.27v-2.82q1.46-.01 2.42-.27t1.53-.71q.56-.46.79-1.1.22-.64.22-1.41 0-1.63-.91-2.48-.91-.84-2.43-.84-.71 0-1.3.2-.59.2-1.06.56-.47.36-.79.84-.32.48-.48 1.05-.28.74-.72.98-.44.24-1.24.11Zm32.52 4.75q0 3.03-.65 5.26t-1.79 3.69q-1.15 1.45-2.71 2.16-1.56.72-3.37.72-1.8 0-3.35-.72-1.54-.71-2.68-2.16-1.13-1.46-1.77-3.69-.64-2.23-.64-5.26 0-3.04.64-5.26.64-2.23 1.77-3.68 1.14-1.46 2.68-2.17 1.55-.71 3.35-.71 1.81 0 3.37.71t2.71 2.17q1.14 1.45 1.79 3.68.65 2.22.65 5.26Zm-4.08 0q0-2.51-.37-4.16-.37-1.65-.99-2.62-.61-.98-1.41-1.37-.8-.39-1.67-.39-.84 0-1.64.39-.79.39-1.4 1.37-.6.97-.96 2.62-.36 1.65-.36 4.16 0 2.51.36 4.16.36 1.65.96 2.63.61.97 1.4 1.36.8.4 1.64.4.87 0 1.67-.4.8-.39 1.41-1.36.62-.98.99-2.63t.37-4.16Zm6.36-11.57h15.99v1.72q0 .76-.16 1.24-.16.47-.32.79l-8.77 18.05q-.27.56-.77.95-.49.39-1.33.39h-2.86l8.94-17.68q.31-.54.6-1 .3-.46.67-.87h-11.07q-.37 0-.64-.27-.28-.28-.28-.64v-2.68Z"/></svg>