<svg xmlns="http://www.w3.org/2000/svg" width="718" height="485" viewBox="0 0 718 485"><rect width="100%" height="100%" fill="#DDDDDD"/><path fill="#999999" d="M147.91 208.155h47.45v5.09q0 2.28-.47 3.68-.48 1.4-.95 2.35l-26.03 53.58q-.81 1.66-2.28 2.83-1.47 1.16-3.94 1.16h-8.51l26.56-52.49q.9-1.61 1.78-2.97.88-1.35 1.97-2.59h-32.87q-1.09 0-1.9-.8-.81-.81-.81-1.9v-7.94Zm87.5 59.9h12.35v8.79h-38v-8.79h13.91v-40.04q0-2.37.15-4.89l-9.88 8.26q-.86.67-1.69.83-.83.17-1.57.03-.73-.14-1.3-.5-.57-.36-.86-.78l-3.7-5.09 20.94-17.81h9.65v59.99Zm45.83.38q2.9 0 5.09-.83 2.18-.83 3.68-2.3 1.49-1.48 2.25-3.52t.76-4.42q0-5.65-3.13-8.54-3.14-2.9-8.65-2.9t-8.64 2.9q-3.14 2.89-3.14 8.54 0 2.38.76 4.42t2.26 3.52q1.5 1.47 3.68 2.3 2.19.83 5.08.83Zm0-52.2q-2.61 0-4.51.81t-3.16 2.16q-1.26 1.35-1.85 3.11-.59 1.76-.59 3.7 0 2.05.5 3.97.49 1.92 1.68 3.42t3.14 2.4q1.94.9 4.79.9t4.8-.9q1.95-.9 3.14-2.4 1.18-1.5 1.68-3.42t.5-3.97q0-1.94-.62-3.7-.61-1.76-1.85-3.11-1.23-1.35-3.13-2.16t-4.52-.81Zm11.59 24.8q6.27 2.04 9.27 6.24 2.99 4.2 2.99 10.28 0 4.57-1.73 8.27-1.74 3.7-4.87 6.32-3.14 2.61-7.53 4.03-4.4 1.43-9.72 1.43t-9.71-1.43q-4.39-1.42-7.53-4.03-3.13-2.62-4.87-6.32-1.73-3.7-1.73-8.27 0-6.08 2.99-10.28 2.99-4.2 9.26-6.24-4.98-2.1-7.48-5.94-2.49-3.85-2.49-9.27 0-3.89 1.59-7.26 1.59-3.38 4.44-5.87 2.85-2.49 6.82-3.89 3.96-1.41 8.71-1.41 4.75 0 8.72 1.41 3.97 1.4 6.82 3.89t4.44 5.87q1.59 3.37 1.59 7.26 0 5.42-2.49 9.27-2.5 3.84-7.49 5.94Zm89.02 20.09-6.22 6.12-16.11-16.1-16.24 16.2-6.22-6.13 16.24-16.29-15.48-15.49 6.17-6.17 15.49 15.49 15.39-15.39 6.27 6.17-15.44 15.44 16.15 16.15Zm41.13-10.17h20.9v-22.47q0-3.18.43-7.02l-21.33 29.49Zm31.12 0h8.64v6.8q0 .95-.62 1.63-.61.69-1.75.69h-6.27v16.77h-10.22v-16.77h-28.97q-1.19 0-2.09-.73-.9-.74-1.14-1.83l-1.24-5.94 32.54-43.46h11.12v42.84Zm38.61 17.48q2.9 0 5.09-.83 2.18-.83 3.68-2.3 1.49-1.48 2.25-3.52t.76-4.42q0-5.65-3.13-8.54-3.14-2.9-8.65-2.9t-8.64 2.9q-3.14 2.89-3.14 8.54 0 2.38.76 4.42t2.26 3.52q1.5 1.47 3.68 2.3 2.19.83 5.08.83Zm0-52.2q-2.61 0-4.51.81t-3.16 2.16q-1.26 1.35-1.85 3.11-.59 1.76-.59 3.7 0 2.05.5 3.97.49 1.92 1.68 3.42t3.14 2.4q1.94.9 4.79.9t4.8-.9q1.95-.9 3.14-2.4 1.18-1.5 1.68-3.42t.5-3.97q0-1.94-.62-3.7-.61-1.76-1.85-3.11-1.23-1.35-3.13-2.16t-4.52-.81Zm11.59 24.8q6.27 2.04 9.27 6.24 2.99 4.2 2.99 10.28 0 4.57-1.73 8.27-1.74 3.7-4.87 6.32-3.14 2.61-7.53 4.03-4.4 1.43-9.72 1.43t-9.71-1.43q-4.39-1.42-7.53-4.03-3.13-2.62-4.87-6.32-1.73-3.7-1.73-8.27 0-6.08 2.99-10.28 2.99-4.2 9.26-6.24-4.98-2.1-7.48-5.94-2.49-3.85-2.49-9.27 0-3.89 1.59-7.26 1.59-3.38 4.44-5.87 2.85-2.49 6.82-3.89 3.96-1.41 8.71-1.41 4.75 0 8.72 1.41 3.97 1.4 6.82 3.89t4.44 5.87q1.59 3.37 1.59 7.26 0 5.42-2.49 9.27-2.5 3.84-7.49 5.94Zm37.67-22.24-2.42 14.3q2.28-.47 4.37-.69 2.09-.21 4.04-.21 5.41 0 9.54 1.61 4.14 1.62 6.94 4.47 2.8 2.85 4.23 6.67 1.42 3.83 1.42 8.24 0 5.47-1.92 9.98-1.93 4.51-5.35 7.72t-8.09 4.96q-4.68 1.76-10.19 1.76-3.23 0-6.13-.66-2.9-.67-5.44-1.79-2.54-1.11-4.7-2.56t-3.87-3.07l3.61-4.98q1.14-1.62 2.99-1.62 1.19 0 2.42.76 1.24.76 2.83 1.66 1.59.91 3.75 1.67 2.16.76 5.2.76 3.23 0 5.7-1.05 2.47-1.04 4.11-2.92 1.64-1.88 2.47-4.46.83-2.59.83-5.63 0-5.61-3.25-8.77-3.26-3.15-9.62-3.15-4.89 0-10.02 1.8l-7.32-2.09 5.7-33.35h33.92v4.99q0 2.52-1.57 4.09-1.57 1.56-5.32 1.56h-18.86Z"/></svg>